<svg width="24" height="24" viewBox="0 0 24 24" fill="none" xmlns="http://www.w3.org/2000/svg">
<path d="M20.947 8.305C20.936 7.548 20.796 6.797 20.528 6.089C20.059 4.88 19.104 3.924 17.895 3.456C17.196 3.193 16.457 3.052 15.709 3.036C14.747 2.993 14.442 2.981 12 2.981C9.55801 2.981 9.24501 2.981 8.29001 3.036C7.54301 3.052 6.80401 3.193 6.10501 3.456C4.89601 3.924 3.94001 4.88 3.47201 6.089C3.20901 6.788 3.06701 7.527 3.05301 8.274C3.01001 9.237 2.99701 9.542 2.99701 11.984C2.99701 14.426 2.99701 14.738 3.05301 15.694C3.06801 16.442 3.20901 17.18 3.47201 17.881C3.94101 19.089 4.89601 20.045 6.10601 20.513C6.80201 20.785 7.54101 20.939 8.29101 20.963C9.25401 21.006 9.55901 21.019 12.001 21.019C14.443 21.019 14.756 21.019 15.711 20.963C16.458 20.948 17.197 20.807 17.897 20.544C19.106 20.075 20.061 19.119 20.53 17.911C20.793 17.211 20.934 16.473 20.949 15.724C20.992 14.762 21.005 14.457 21.005 12.014C21.003 9.572 21.003 9.262 20.947 8.305ZM11.994 16.602C9.44001 16.602 7.37101 14.533 7.37101 11.979C7.37101 9.425 9.44001 7.356 11.994 7.356C14.546 7.356 16.617 9.425 16.617 11.979C16.617 14.533 14.546 16.602 11.994 16.602ZM16.801 8.263C16.204 8.263 15.723 7.781 15.723 7.185C15.723 6.589 16.204 6.107 16.801 6.107C17.396 6.107 17.878 6.589 17.878 7.185C17.878 7.781 17.396 8.263 16.801 8.263Z" fill="#019FC4"/>
<path d="M11.994 14.982C13.6525 14.982 14.997 13.6375 14.997 11.979C14.997 10.3205 13.6525 8.976 11.994 8.976C10.3355 8.976 8.991 10.3205 8.991 11.979C8.991 13.6375 10.3355 14.982 11.994 14.982Z" fill="#019FC4"/>
</svg>