<svg width="18" height="18" viewBox="0 0 18 18" fill="none" xmlns="http://www.w3.org/2000/svg">
<path d="M14.7247 5.99766C14.7345 6.12891 14.7345 6.25941 14.7345 6.38991C14.7345 10.3837 11.6947 14.9857 6.1395 14.9857C4.428 14.9857 2.838 14.4899 1.5 13.6289C1.743 13.6567 1.977 13.6664 2.22975 13.6664C3.642 13.6664 4.94175 13.1894 5.9805 12.3757C4.65225 12.3479 3.53925 11.4779 3.15525 10.2809C3.342 10.3087 3.5295 10.3274 3.726 10.3274C3.99675 10.3274 4.269 10.2899 4.52175 10.2247C3.1365 9.94416 2.09925 8.72841 2.09925 7.25991V7.22241C2.502 7.44666 2.96925 7.58691 3.46425 7.60566C2.6505 7.06416 2.11725 6.13791 2.11725 5.09016C2.11725 4.52916 2.2665 4.01466 2.52825 3.56616C4.0155 5.39841 6.25125 6.59616 8.75775 6.72741C8.71125 6.50241 8.68275 6.26916 8.68275 6.03516C8.68275 4.37016 10.0297 3.01416 11.7037 3.01416C12.5737 3.01416 13.359 3.37866 13.911 3.96816C14.5935 3.83691 15.2475 3.58416 15.828 3.23841C15.6038 3.93966 15.126 4.52916 14.4998 4.90341C15.108 4.83741 15.6975 4.66941 16.239 4.43541C15.828 5.03391 15.3142 5.56716 14.7247 5.99766Z" fill="white"/>
</svg>