<svg width="24" height="24" viewBox="0 0 24 24" fill="none" xmlns="http://www.w3.org/2000/svg">
<path d="M19.633 7.997C19.646 8.172 19.646 8.346 19.646 8.52C19.646 13.845 15.593 19.981 8.186 19.981C5.904 19.981 3.784 19.32 2 18.172C2.324 18.209 2.636 18.222 2.973 18.222C4.856 18.222 6.589 17.586 7.974 16.501C6.203 16.464 4.719 15.304 4.207 13.708C4.456 13.745 4.706 13.77 4.968 13.77C5.329 13.77 5.692 13.72 6.029 13.633C4.182 13.259 2.799 11.638 2.799 9.68V9.63C3.336 9.929 3.959 10.116 4.619 10.141C3.534 9.419 2.823 8.184 2.823 6.787C2.823 6.039 3.022 5.353 3.371 4.755C5.354 7.198 8.335 8.795 11.677 8.97C11.615 8.67 11.577 8.359 11.577 8.047C11.577 5.827 13.373 4.019 15.605 4.019C16.765 4.019 17.812 4.505 18.548 5.291C19.458 5.116 20.33 4.779 21.104 4.318C20.805 5.253 20.168 6.039 19.333 6.538C20.144 6.45 20.93 6.226 21.652 5.914C21.104 6.712 20.419 7.423 19.633 7.997Z" fill="#019FC4"/>
</svg>