<svg width="40" height="40" viewBox="0 0 40 40" fill="none" xmlns="http://www.w3.org/2000/svg">
<path d="M25.0887 17.3313C25.0974 17.448 25.0974 17.564 25.0974 17.68C25.0974 21.23 22.3954 25.3207 17.4574 25.3207C15.936 25.3207 14.5227 24.88 13.3334 24.1147C13.5494 24.1393 13.7574 24.148 13.982 24.148C15.2374 24.148 16.3927 23.724 17.316 23.0007C16.1354 22.976 15.146 22.2027 14.8047 21.1387C14.9707 21.1633 15.1374 21.18 15.312 21.18C15.5527 21.18 15.7947 21.1467 16.0194 21.0887C14.788 20.8393 13.866 19.7587 13.866 18.4533V18.42C14.224 18.6193 14.6394 18.744 15.0794 18.7607C14.356 18.2793 13.882 17.456 13.882 16.5247C13.882 16.026 14.0147 15.5687 14.2474 15.17C15.5694 16.7987 17.5567 17.8633 19.7847 17.98C19.7434 17.78 19.718 17.5727 19.718 17.3647C19.718 15.8847 20.9154 14.6793 22.4034 14.6793C23.1767 14.6793 23.8747 15.0033 24.3654 15.5273C24.972 15.4107 25.5534 15.186 26.0694 14.8787C25.87 15.502 25.4454 16.026 24.8887 16.3587C25.4294 16.3 25.9534 16.1507 26.4347 15.9427C26.0694 16.4747 25.6127 16.9487 25.0887 17.3313Z" fill="white"/>
</svg>
