<svg width="40" height="40" viewBox="0 0 40 40" fill="none" xmlns="http://www.w3.org/2000/svg">
<path fill-rule="evenodd" clip-rule="evenodd" d="M24.2687 15.7553C23.1387 14.624 21.636 14.0007 20.0353 14C16.7367 14 14.0513 16.6847 14.05 19.9847C14.05 21.0393 14.3253 22.0687 14.8487 22.9767L14 26.0773L17.1727 25.2447C18.0473 25.7213 19.0313 25.9727 20.0327 25.9733H20.0353C23.3333 25.9733 26.0187 23.2887 26.02 19.9887C26.02 18.39 25.3987 16.8867 24.2687 15.7553ZM20.0353 24.9633H20.0333C19.1407 24.9627 18.2653 24.7233 17.5013 24.2693L17.32 24.1613L15.4373 24.6553L15.9393 22.82L15.8213 22.632C15.3233 21.84 15.0607 20.9247 15.0607 19.9847C15.062 17.242 17.2933 15.0107 20.0373 15.0107C21.366 15.0113 22.6147 15.5293 23.554 16.4693C24.4927 17.41 25.01 18.6593 25.0093 19.9887C25.008 22.7313 22.7767 24.9633 20.0353 24.9633ZM22.764 21.2373C22.614 21.162 21.8793 20.8007 21.742 20.7507C21.6053 20.7007 21.506 20.676 21.406 20.8253C21.306 20.9747 21.0193 21.3113 20.932 21.4113C20.8447 21.5113 20.7573 21.5233 20.608 21.4487C20.4587 21.374 19.9767 21.216 19.4053 20.7067C18.9607 20.31 18.6607 19.8207 18.5733 19.6707C18.486 19.5207 18.564 19.44 18.6393 19.3653C18.7067 19.2987 18.7887 19.1907 18.8633 19.1033C18.938 19.016 18.9627 18.954 19.0127 18.854C19.0627 18.754 19.038 18.6667 19 18.592C18.9627 18.5167 18.6633 17.7807 18.5387 17.4813C18.418 17.1913 18.2947 17.23 18.2027 17.226C18.116 17.222 18.016 17.2207 17.9167 17.2207C17.8167 17.2207 17.6547 17.258 17.5173 17.4073C17.38 17.5573 16.994 17.9187 16.994 18.6547C16.994 19.3907 17.53 20.102 17.6047 20.202C17.6793 20.302 18.6593 21.812 20.1593 22.46C20.5167 22.614 20.7953 22.706 21.012 22.7753C21.37 22.8893 21.696 22.8727 21.954 22.8347C22.2413 22.792 22.8387 22.4733 22.9633 22.124C23.088 21.7747 23.088 21.4753 23.0507 21.4127C23.0133 21.35 22.9127 21.312 22.764 21.2373Z" fill="white"/>
</svg>
