<svg width="40" height="40" viewBox="0 0 40 40" fill="none" xmlns="http://www.w3.org/2000/svg">
<path d="M17.6433 19.5287C18.3987 18.7734 19.716 18.7734 20.4713 19.5287L20.9427 20L21.8853 19.0574L21.414 18.586C20.7853 17.9567 19.948 17.6094 19.0573 17.6094C18.1667 17.6094 17.3293 17.9567 16.7007 18.586L15.286 20C13.9873 21.2994 13.9873 23.4147 15.286 24.714C15.936 25.364 16.7893 25.6887 17.6427 25.6887C18.4967 25.6887 19.3507 25.364 20 24.714L20.4713 24.2427L19.5287 23.3L19.0573 23.7714C18.2773 24.5494 17.0087 24.5507 16.2287 23.7714C15.4493 22.9914 15.4493 21.7227 16.2287 20.9427L17.6433 19.5287Z" fill="white"/>
<path d="M20 15.286L19.5286 15.7574L20.4713 16.7L20.9426 16.2287C21.722 15.4507 22.9906 15.4494 23.7713 16.2287C24.5506 17.0087 24.5506 18.2774 23.7713 19.0574L22.3566 20.4714C21.6013 21.2267 20.284 21.2267 19.5286 20.4714L19.0573 20L18.1146 20.9427L18.586 21.414C19.2146 22.0434 20.052 22.3907 20.9426 22.3907C21.8333 22.3907 22.6706 22.0434 23.2993 21.414L24.714 20C26.0126 18.7007 26.0126 16.5854 24.714 15.286C23.414 13.986 21.2986 13.9867 20 15.286Z" fill="white"/>
</svg>
