<svg width="40" height="40" viewBox="0 0 40 40" fill="none" xmlns="http://www.w3.org/2000/svg">
<path d="M15.3219 16.7979C16.1275 16.7979 16.7806 16.1449 16.7806 15.3393C16.7806 14.5337 16.1275 13.8806 15.3219 13.8806C14.5163 13.8806 13.8633 14.5337 13.8633 15.3393C13.8633 16.1449 14.5163 16.7979 15.3219 16.7979Z" fill="white"/>
<path d="M18.158 17.9034V25.996H20.6707V21.994C20.6707 20.938 20.8694 19.9154 22.1787 19.9154C23.47 19.9154 23.486 21.1227 23.486 22.0607V25.9967H26V21.5587C26 19.3787 25.5307 17.7034 22.9827 17.7034C21.7594 17.7034 20.9394 18.3747 20.604 19.01H20.57V17.9034H18.158ZM14.0634 17.9034H16.58V25.996H14.0634V17.9034Z" fill="white"/>
</svg>
